<svg width="1rem" viewBox="0 0 2568.000000 625.000000"
     preserveAspectRatio="xMidYMid meet">

    <g transform="translate(0.000000,625.000000) scale(0.100000,-0.100000)"
       fill="#4c956c" stroke="none">
        <path d="M3120 5819 c-395 -20 -855 -161 -1194 -366 -197 -120 -387 -266 -516
-397 -62 -64 -66 -66 -115 -66 -62 -1 -118 -13 -150 -34 -22 -15 -23 -19 -12
-43 6 -14 28 -33 49 -43 l37 -16 -88 -117 c-244 -326 -421 -732 -489 -1122
-25 -140 -42 -300 -42 -394 -1 -61 -4 -72 -55 -161 -61 -106 -62 -102 30 -114
l50 -7 50 127 c27 69 50 122 52 118 1 -5 -5 -61 -15 -124 -16 -107 -19 -115
-42 -120 -19 -5 -11 -8 34 -14 33 -4 65 -10 73 -13 10 -4 13 15 13 96 l0 101
30 0 c29 0 30 -1 30 -50 0 -27 -8 -72 -19 -99 l-19 -50 46 -15 c36 -13 92 -16
258 -16 204 0 213 -1 219 -20 5 -16 15 -20 52 -20 36 0 46 4 50 20 5 18 14 20
79 20 l74 0 20 -39 c31 -61 103 -90 387 -156 258 -59 295 -72 401 -134 37 -22
101 -49 142 -60 107 -29 472 -103 613 -124 l37 -6 0 65 0 64 240 0 240 0 0
-42 c0 -56 -18 -319 -26 -381 l-6 -49 -207 5 c-113 3 -372 10 -576 16 -635 19
-1312 34 -1774 38 -376 3 -442 1 -432 -10 6 -8 50 -25 97 -37 48 -13 90 -28
95 -34 5 -6 30 -51 56 -101 97 -190 246 -408 379 -556 32 -36 71 -79 85 -95
36 -39 156 -146 256 -227 764 -615 1832 -757 2743 -365 63 28 129 55 146 62
18 6 38 17 45 23 8 6 64 40 125 77 121 71 268 177 381 274 l72 62 432 0 c342
0 434 3 443 13 9 10 67 11 295 5 156 -5 285 -7 286 -6 1 2 5 18 8 36 l7 32
-210 0 c-182 0 -210 -2 -210 -15 0 -13 -15 -15 -92 -13 -86 3 -93 5 -96 24 -3
19 3 22 50 27 29 4 71 7 93 7 l41 0 28 73 c15 39 33 104 38 142 14 101 3 388
-21 540 -11 72 -28 180 -37 240 -13 93 -21 118 -50 162 -42 63 -52 70 -131 78
-33 4 -65 10 -70 14 -7 4 -2 51 13 131 80 439 50 908 -87 1322 -44 133 -124
324 -174 415 -34 62 -34 62 -12 69 12 3 85 34 162 67 132 57 144 65 218 138
80 80 96 117 60 138 -17 10 -17 10 0 11 14 0 17 10 17 58 0 53 -3 59 -33 83
-18 15 -62 41 -98 59 -35 18 -83 46 -107 62 -125 86 -385 92 -645 17 l-67 -20
-96 86 c-441 392 -1023 639 -1584 670 -200 11 -229 12 -380 4z m30 -37 c0 -5
-12 -19 -26 -33 -31 -29 -136 -183 -170 -251 l-24 -48 -108 6 c-59 3 -129 9
-157 13 l-50 8 100 99 c138 137 222 192 305 203 90 12 130 12 130 3z m120 -1
c0 -20 -31 -298 -35 -318 -5 -21 -11 -23 -69 -23 -35 0 -90 3 -124 6 l-61 7
24 46 c30 58 118 185 170 244 29 33 48 46 68 47 15 0 27 -4 27 -9z m204 -18
c3 -16 10 -75 16 -133 5 -58 13 -124 16 -147 l5 -43 -115 0 c-86 0 -116 3
-116 13 0 24 31 312 35 325 3 8 28 12 79 12 73 0 75 0 80 -27z m170 -51 c30
-37 80 -107 111 -157 l56 -90 -28 -6 c-15 -4 -73 -9 -129 -12 l-101 -6 -16
157 c-10 86 -17 163 -17 170 0 7 14 12 35 12 30 0 40 -8 89 -68z m122 38 c36
-14 177 -126 248 -198 l68 -70 -73 -6 c-41 -4 -90 -9 -110 -12 l-36 -5 -56 94
c-31 52 -74 116 -95 143 -58 74 -58 73 -10 67 24 -3 52 -9 64 -13z m-956 -27
c-25 -20 -92 -84 -150 -142 l-105 -106 -137 9 c-76 5 -138 12 -138 16 0 12
152 107 244 153 45 22 83 44 86 48 4 5 197 52 240 58 3 0 -15 -16 -40 -36z
m1226 -40 c63 -25 223 -115 269 -151 l25 -20 -76 -11 c-41 -6 -85 -11 -97 -11
-15 0 -62 40 -141 117 -117 114 -118 116 -81 109 22 -4 67 -19 101 -33z
m-1661 -61 c-6 -5 -47 -34 -93 -65 -79 -54 -85 -56 -129 -50 -54 7 -55 7 102
75 107 47 139 57 120 40z m2001 -59 c67 -31 75 -38 52 -41 -18 -2 -44 9 -82
34 -51 33 -63 44 -52 44 2 0 39 -17 82 -37z m238 -120 c164 -94 399 -266 480
-351 l28 -30 -55 -7 c-48 -6 -59 -4 -97 20 -114 72 -296 209 -398 299 -91 81
-109 102 -95 108 35 13 57 7 137 -39z m-2487 21 c19 -5 11 -15 -63 -81 -95
-84 -209 -208 -303 -330 -35 -46 -68 -83 -72 -83 -15 0 -274 42 -277 45 -1 1
39 40 90 85 117 104 283 228 413 308 84 51 107 62 145 62 25 0 55 -3 67 -6z
m248 -20 c66 -3 125 -9 132 -13 8 -4 -7 -34 -48 -91 -50 -70 -66 -86 -92 -90
-31 -5 -32 -8 -38 -60 -8 -85 -24 -110 -71 -110 l-38 0 0 49 c0 143 -60 165
-219 80 l-95 -52 31 39 c77 96 276 267 301 260 9 -3 71 -8 137 -12z m1828 -9
c-6 -17 -25 -15 -31 3 -2 7 5 12 17 12 14 0 19 -5 14 -15z m-55 -33 c16 -22
35 -57 41 -79 6 -22 24 -60 41 -84 44 -65 37 -126 -23 -202 -31 -40 -124 -95
-136 -80 -4 4 -27 62 -50 128 -24 66 -65 168 -91 227 l-47 107 51 5 c28 3 65
8 81 9 90 11 100 9 133 -31z m-1346 12 l107 -7 -20 -38 -19 -39 -68 1 c-37 0
-98 3 -136 8 -38 4 -89 4 -113 1 -23 -4 -43 -5 -43 -2 0 3 16 25 37 50 l36 44
56 -6 c31 -3 104 -8 163 -12z m1068 -72 c41 -87 81 -186 124 -310 32 -93 34
-101 18 -115 -12 -10 -74 -20 -204 -33 -103 -9 -190 -15 -193 -13 -5 6 -58
519 -53 524 4 5 261 22 270 18 3 -2 20 -33 38 -71z m-790 57 l55 -2 -42 -6
c-23 -4 -50 -14 -60 -23 -23 -21 -102 -52 -110 -44 -3 3 2 24 12 47 18 39 21
41 54 35 20 -3 61 -6 91 -7z m150 -9 c0 -6 -11 -8 -27 -4 -40 10 -41 14 -5 14
18 0 32 -5 32 -10z m312 -260 c14 -146 26 -266 25 -267 -1 -1 -58 -5 -126 -9
-123 -7 -124 -7 -119 14 4 12 0 26 -9 33 -25 22 -43 67 -43 112 0 36 7 51 37
87 31 36 38 52 41 100 5 63 -9 100 -52 141 -44 41 -35 48 67 52 50 2 105 3
122 3 l30 -1 27 -265z m2178 -90 c12 -8 9 -16 -22 -44 -21 -19 -38 -38 -38
-42 0 -4 47 -4 104 -1 l105 6 43 -31 c80 -57 108 -89 108 -125 0 -18 -2 -33
-6 -33 -3 0 -35 7 -72 15 l-67 15 -175 -56 c-96 -31 -188 -60 -205 -64 -16 -4
-93 -28 -169 -54 -77 -26 -152 -48 -168 -50 -15 -2 -33 -8 -40 -13 -7 -6 -53
-23 -101 -38 l-88 -28 -142 18 c-164 20 -255 31 -349 40 -64 7 -67 6 -70 -16
-2 -12 -8 -24 -13 -26 -6 -2 -44 22 -85 52 -108 79 -139 74 -140 -23 0 -47 54
-136 97 -162 29 -17 34 -23 22 -31 -27 -17 -65 -9 -91 19 -34 35 -78 125 -78
157 0 19 -5 25 -22 25 -22 0 -257 -74 -289 -91 -45 -23 -119 -47 -124 -40 -3
5 44 51 105 101 60 51 108 96 105 100 -2 4 -33 10 -67 14 -120 13 -153 18
-170 27 -30 16 -67 10 -79 -12 -10 -20 -14 -18 -80 47 -38 38 -69 78 -70 89
-1 15 -3 14 -9 -7 -4 -15 -18 -41 -29 -57 -20 -27 -21 -35 -11 -73 7 -24 25
-67 41 -95 44 -79 15 -67 -75 32 l-77 84 -188 -64 c-103 -36 -192 -65 -197
-65 -5 0 36 45 91 100 54 54 97 101 94 104 -2 2 -123 21 -269 42 l-265 39 233
3 c213 2 235 1 270 -17 21 -11 44 -27 51 -35 10 -12 34 -16 101 -16 73 0 96 4
137 24 40 21 67 25 166 29 121 4 124 3 118 -35 0 -5 10 -8 23 -8 19 0 25 6 28
27 l3 28 140 12 c77 6 154 14 172 18 30 5 31 4 38 -33 11 -67 67 -106 176
-126 14 -2 57 5 95 15 38 11 119 32 179 48 736 194 1011 265 1070 276 85 16
204 18 225 5z m-4326 -240 c70 -21 131 -42 134 -45 9 -8 -32 -5 -47 4 -9 6
-43 -5 -100 -31 -47 -22 -87 -41 -89 -43 -2 -1 9 -32 24 -67 l26 -65 -47 -73
c-25 -40 -56 -93 -68 -117 l-22 -45 -105 7 c-58 3 -122 8 -143 11 l-38 6 37
66 c75 137 281 432 302 432 4 0 65 -18 136 -40z m4531 -85 c-56 -48 -70 -53
-265 -109 -107 -30 -250 -74 -317 -96 -67 -22 -136 -40 -152 -40 -17 0 -31 -4
-31 -9 0 -15 -394 -131 -445 -131 -31 0 -198 -46 -240 -66 -31 -15 -195 -61
-243 -69 -15 -2 -72 -18 -126 -34 -124 -37 -380 -93 -408 -89 -24 3 454 148
492 148 14 1 34 7 44 15 11 8 32 15 46 15 33 0 192 47 199 59 8 13 142 51 179
51 17 0 32 4 34 10 4 13 437 142 449 134 6 -3 20 1 32 9 12 7 94 33 182 56
127 34 534 150 580 166 21 7 19 4 -10 -20z m-229 -432 c54 -116 76 -169 116
-283 32 -94 88 -297 83 -302 -2 -2 -24 -2 -49 0 -40 4 -46 7 -46 26 0 79 -117
424 -181 531 -72 123 -73 116 13 124 12 1 30 -26 64 -96z m-3332 -27 l181 -93
180 42 c99 23 219 54 267 70 49 15 98 25 110 22 42 -9 499 -155 506 -161 14
-14 -26 -28 -283 -102 -148 -42 -277 -80 -285 -84 -8 -5 -202 -25 -430 -45
-228 -20 -428 -38 -445 -41 l-30 -5 30 26 c74 62 141 94 283 131 78 20 142 40
142 43 -1 3 -16 18 -36 33 -41 31 -11 27 -589 72 -302 24 -428 30 -449 23 -30
-10 -46 1 -46 36 0 21 10 21 373 6 147 -7 270 -9 273 -6 3 3 -11 27 -30 55
-20 27 -36 52 -36 55 0 6 42 12 104 15 19 1 89 -29 210 -92z m-1306 28 c67 -3
122 -8 122 -11 0 -2 -23 -54 -51 -115 -53 -117 -99 -273 -99 -338 0 -72 5 -70
-170 -70 l-159 0 26 93 c30 109 92 282 139 385 27 58 37 72 51 68 10 -2 73 -8
141 -12z m1842 1 c0 -8 -2 -15 -4 -15 -2 0 -6 7 -10 15 -3 8 -1 15 4 15 6 0
10 -7 10 -15z m2157 -50 c-5 -19 -17 -37 -26 -39 -9 -3 -196 -57 -416 -121
-482 -140 -434 -123 -412 -139 23 -18 23 -56 -1 -56 -18 0 -78 -73 -114 -139
l-17 -32 -178 7 c-98 4 -180 9 -183 11 -3 3 -5 37 -5 76 l0 71 90 22 c50 11
129 33 176 47 48 15 96 27 108 27 12 0 29 5 39 10 17 11 917 287 939 289 8 1
8 -8 0 -34z m-3249 -247 c76 -10 85 -14 94 -37 12 -30 15 -162 4 -179 -14 -24
-178 -7 -214 21 -9 7 -13 31 -11 71 1 41 -3 72 -14 93 -26 49 -22 57 21 49 20
-3 75 -11 120 -18z m3114 -271 c-17 -17 -34 -28 -37 -25 -4 3 -12 28 -19 56
l-14 49 42 49 41 48 9 -73 9 -73 -31 -31z m-1264 70 l3 -67 -267 0 c-147 0
-265 3 -262 6 8 8 501 133 513 130 6 -2 11 -33 13 -69z m-1583 -22 c6 -2 -20
-4 -57 -4 -38 -1 -68 3 -68 7 0 8 101 5 125 -3z m285 -25 c39 -6 33 -8 -40 -8
-47 0 -116 6 -155 13 l-70 14 110 -5 c61 -4 130 -10 155 -14z m714 -8 c5 -8
-238 -5 -274 2 -8 2 49 4 127 5 78 0 144 -3 147 -7z m-2112 -32 l76 0 26 -52
c21 -42 26 -66 26 -126 0 -40 -4 -72 -9 -70 -5 2 -66 35 -137 73 -113 62 -129
74 -142 108 -11 27 -21 37 -38 37 -27 0 -29 -8 -45 -190 -9 -113 -15 -142 -37
-180 -53 -94 -54 -94 -47 0 9 120 23 232 42 329 l16 84 96 -7 c53 -3 130 -6
173 -6z m1438 -24 c0 -19 55 -40 86 -32 24 6 25 5 20 -21 -3 -15 -8 -119 -12
-231 l-6 -203 -61 -30 c-51 -25 -73 -29 -140 -29 -68 0 -78 2 -73 16 3 9 6 38
6 65 l0 49 63 28 c61 28 64 31 90 93 32 80 39 127 26 193 -7 40 -17 58 -47 83
l-37 32 43 1 c29 0 42 -4 42 -14z m489 4 l194 0 -7 -37 c-3 -21 -9 -140 -13
-266 -6 -211 -7 -226 -23 -212 -11 10 -37 15 -73 15 l-57 0 0 33 c0 57 10 77
37 77 l25 0 -22 34 c-11 19 -24 54 -28 78 -7 39 -10 43 -37 43 -26 0 -34 -7
-57 -50 -17 -31 -28 -66 -28 -91 0 -23 -3 -56 -6 -73 l-6 -31 -129 0 -129 0 5
83 c2 45 7 147 10 227 5 135 7 146 28 163 17 14 33 17 72 13 28 -3 137 -6 244
-6z m783 -97 c5 -82 9 -230 9 -416 l0 -58 -198 5 c-109 3 -240 8 -292 12 l-94
5 7 197 c3 108 9 232 13 275 l6 77 271 -2 271 -3 7 -92z m388 61 c0 -79 -116
-189 -237 -225 -33 -9 -48 -21 -67 -53 l-24 -40 -6 80 c-3 43 -8 121 -12 172
l-6 92 176 0 176 0 0 -26z m1859 -56 c21 -120 32 -224 38 -365 l6 -143 -41 0
-42 0 0 129 c0 104 -5 150 -26 238 -14 59 -29 129 -33 156 l-8 47 47 0 48 0
11 -62z m-4956 -137 c81 -47 145 -86 144 -87 -3 -4 -308 93 -314 100 -7 7 9
77 17 74 4 -2 73 -41 153 -87z m-19 -97 c72 -20 132 -37 134 -39 6 -5 -18 -47
-50 -87 -44 -56 -31 -72 53 -65 39 3 71 2 74 -4 4 -5 -66 -9 -179 -9 l-186 0
0 120 c0 84 3 120 12 120 6 0 70 -16 142 -36z m431 -203 c23 -7 6 -9 -72 -10
-89 -1 -103 1 -103 15 0 15 9 16 73 11 39 -4 86 -11 102 -16z m-257 -103 l3
-38 -90 0 c-50 0 -94 0 -98 0 -5 0 -9 15 -11 34 -3 32 -1 35 30 39 18 2 62 4
98 3 l65 -1 3 -37z m290 0 l-3 -43 -117 -3 -118 -3 0 46 0 45 121 0 120 0 -3
-42z m286 34 c2 -4 1 -23 -3 -42 l-7 -35 -107 -3 -107 -3 0 46 0 45 109 0 c61
0 112 -3 115 -8z m668 -52 c21 -30 38 -59 38 -63 1 -22 -44 -15 -183 28 -159
49 -192 64 -141 66 16 0 47 7 69 14 22 7 72 13 110 12 l70 -2 37 -55z m1320
-220 c-1 -140 -4 -261 -7 -267 -5 -15 -232 -18 -393 -7 l-92 7 0 204 c0 199 1
205 24 236 13 18 26 44 30 60 l6 27 218 -2 217 -3 -3 -255z m113 168 c22 -20
67 -51 100 -67 77 -38 119 -82 149 -156 21 -52 28 -61 57 -66 27 -6 41 -1 86
28 29 20 56 34 59 31 2 -3 2 -53 -2 -112 l-7 -106 -260 0 -260 0 6 107 c4 58
7 176 8 262 0 125 3 152 12 137 7 -11 30 -37 52 -58z m1021 -80 c-7 -145 -21
-307 -32 -355 l-4 -23 -250 0 -250 0 6 128 c5 100 10 130 23 140 9 8 75 43
146 78 124 62 132 68 170 124 l40 60 79 0 79 0 -7 -152z m182 125 l35 -26 -6
-76 c-4 -50 -18 -112 -42 -181 -20 -58 -39 -131 -42 -162 l-5 -58 -55 0 -56 0
7 58 c18 164 26 267 26 365 l0 107 52 0 c40 0 59 -6 86 -27z m957 -55 c-17
-178 -28 -262 -46 -348 -10 -52 -19 -98 -19 -102 0 -12 -69 -9 -93 4 -12 6
-40 26 -62 43 -40 32 -41 32 -125 27 -68 -4 -92 -10 -123 -30 -36 -24 -56 -25
-42 -2 3 6 32 24 64 40 49 24 63 27 97 20 21 -5 74 -12 116 -15 l77 -7 16 53
c9 30 20 90 26 134 5 44 16 105 24 135 8 30 15 67 15 83 0 25 3 27 40 27 l41
0 -6 -62z m-4875 -28 c0 -18 -7 -20 -80 -20 -73 0 -80 2 -80 20 0 18 7 20 80
20 73 0 80 -2 80 -20z m300 0 c0 -19 -7 -20 -94 -20 -89 0 -94 1 -89 20 5 18
14 20 94 20 82 0 89 -2 89 -20z m1640 -87 c0 -60 3 -159 7 -220 l6 -113 -49 0
c-60 0 -210 45 -619 185 -170 58 -393 130 -494 160 -173 52 -189 55 -292 55
-66 0 -109 4 -109 10 0 6 43 10 110 10 165 0 335 -40 675 -161 238 -84 465
-154 470 -146 1 1 11 16 23 33 l21 31 -36 54 c-19 30 -54 74 -77 99 -23 25
-54 60 -71 78 l-29 32 232 0 232 0 0 -107z m1209 -379 c5 -5 -13 -183 -36
-352 l-17 -124 -206 6 c-113 4 -223 9 -245 12 l-40 4 12 148 c6 81 12 179 12
219 1 115 -24 105 265 97 138 -3 253 -8 255 -10z m541 -21 c-1 -41 -46 -253
-56 -262 -5 -5 -101 -52 -213 -105 -152 -72 -213 -96 -243 -96 l-41 0 6 38
c14 84 36 272 42 347 4 44 8 86 10 93 3 9 62 12 250 12 l245 0 0 -27z m166 19
c6 -4 17 -24 23 -45 9 -27 19 -39 39 -43 15 -3 32 -7 38 -9 12 -4 80 9 109 20
18 7 17 5 -4 -18 -21 -23 -33 -27 -81 -27 -78 0 -148 -25 -169 -61 -14 -25
-106 -78 -116 -67 -2 2 5 44 15 93 10 50 21 107 24 128 l7 37 52 0 c29 0 57
-4 63 -8z m946 -31 c159 -7 169 -9 194 -32 45 -41 54 -77 54 -213 0 -69 -4
-127 -8 -130 -20 -12 -32 17 -44 109 -13 94 -15 101 -42 114 -33 15 -185 26
-203 14 -14 -10 -20 -112 -9 -175 l8 -48 -29 0 c-29 0 -29 0 -40 88 -16 126
-24 142 -70 143 -57 2 -132 -1 -185 -7 -48 -6 -48 -6 -48 -42 1 -21 7 -48 15
-62 19 -34 19 -79 -2 -102 -12 -13 -30 -18 -70 -18 -52 0 -53 0 -53 -30 0 -25
-4 -30 -24 -30 -22 0 -25 6 -37 69 -6 38 -15 74 -18 80 -7 10 -154 -18 -168
-32 -5 -6 12 -113 24 -143 5 -14 -14 -24 -69 -37 -25 -7 -26 -5 -43 68 -9 41
-19 75 -21 75 -3 0 -44 -16 -91 -37 -74 -32 -84 -39 -79 -57 4 -12 9 -39 12
-61 l6 -41 -378 -119 c-209 -65 -385 -121 -392 -123 -10 -3 -12 10 -10 58 l3
63 625 244 c612 239 640 248 693 228 15 -6 17 0 17 63 0 130 19 143 195 136
66 -3 195 -9 287 -13z m296 -503 l3 -78 -351 0 -350 0 0 73 c0 41 3 77 7 80 4
4 160 6 347 5 l341 -3 3 -77z m-5218 27 l35 -13 -46 -1 c-33 -1 -49 3 -53 14
-7 19 16 19 64 0z m2673 8 c3 -5 -1 -73 -9 -153 -7 -80 -13 -148 -14 -152 0
-5 -6 -8 -12 -8 -7 0 -97 -41 -200 -92 -103 -50 -190 -90 -192 -87 -3 2 -14
109 -26 237 -17 182 -19 236 -10 248 10 11 54 14 236 14 122 0 225 -3 227 -7z
m520 -22 c16 -6 13 -10 -17 -26 -19 -10 -37 -26 -39 -35 -2 -10 -29 -31 -58
-48 -62 -35 -369 -156 -376 -148 -3 3 -1 59 6 125 6 65 11 127 11 136 0 16 16
17 227 10 125 -4 236 -10 246 -14z m-1033 -32 c0 -11 9 -120 21 -242 19 -210
19 -222 3 -234 -12 -9 -57 -13 -141 -13 -112 0 -127 2 -153 22 -17 12 -30 31
-30 43 0 12 -13 34 -30 50 -16 16 -30 36 -30 44 0 35 59 139 95 169 21 17 52
57 69 89 l31 58 75 17 c41 9 78 17 83 17 4 1 7 -8 7 -20z m-1740 -25 c41 -107
215 -419 299 -535 17 -23 30 -44 28 -45 -2 -2 -73 -15 -158 -29 l-154 -24 -64
67 c-72 77 -182 215 -251 317 -52 77 -150 245 -150 257 0 9 84 13 288 16 l152
2 10 -26z m468 16 c138 0 202 -3 202 -11 0 -19 99 -276 154 -399 l54 -120 -32
-5 c-114 -18 -458 -55 -467 -50 -15 10 -121 171 -189 289 -58 101 -150 286
-150 302 0 4 51 4 113 1 61 -4 203 -7 315 -7z m282 -12 c1 -24 45 -67 84 -83
21 -9 63 -20 93 -25 68 -11 110 -41 133 -94 9 -23 24 -47 33 -54 8 -7 21 -27
28 -45 7 -18 25 -48 41 -68 15 -20 28 -45 28 -56 0 -10 7 -28 15 -40 14 -20
13 -21 -23 -27 -20 -3 -77 -8 -127 -11 -49 -4 -98 -8 -107 -11 -13 -4 -26 12
-53 66 -40 80 -116 262 -150 360 -13 36 -26 73 -30 83 -5 13 -2 17 14 17 12 0
21 -6 21 -12z m3330 -23 c7 -9 11 -17 9 -20 -3 -2 -267 -70 -589 -150 -562
-141 -587 -146 -645 -137 -33 5 -53 11 -45 15 8 3 290 72 625 152 336 81 612
149 614 151 8 8 19 4 31 -11z m660 -149 c0 -8 -5 -27 -10 -41 -6 -15 -11 -52
-11 -83 -2 -47 2 -59 21 -74 12 -10 31 -18 41 -18 10 0 19 -7 19 -15 0 -12
-18 -15 -104 -15 -84 0 -108 -3 -127 -18 -65 -49 -115 -49 -188 0 l-44 29
-113 -7 -114 -7 0 27 c0 25 2 26 38 20 l39 -6 6 43 c3 24 2 72 -2 107 -4 34
-5 64 -3 67 3 3 128 5 279 5 230 0 273 -2 273 -14z m-2135 -186 c4 -104 9
-190 11 -190 1 0 202 29 446 65 336 50 500 69 678 80 323 20 350 20 350 -4 0
-11 -4 -22 -10 -26 -5 -3 -179 -23 -387 -45 -208 -22 -462 -49 -565 -60 -103
-11 -265 -21 -360 -22 -95 -1 -137 -4 -93 -5 44 -2 83 -7 88 -12 4 -4 -122
-20 -280 -35 -460 -44 -460 -44 5 39 l32 6 0 154 c0 85 -4 155 -9 155 -4 0
-93 -32 -196 -71 -191 -71 -302 -105 -312 -95 -3 3 5 10 18 15 195 76 476 195
506 215 71 46 70 49 78 -164z m1495 95 c0 -52 -2 -95 -5 -95 -3 0 -28 11 -55
25 -27 14 -60 25 -74 25 -23 0 -1075 -134 -1144 -146 -31 -5 -33 -3 -30 18 3
22 17 25 593 119 475 78 601 102 645 122 30 14 58 26 63 26 4 1 7 -42 7 -94z
m-2252 -307 c3 -107 -9 -126 -75 -120 -44 4 -65 28 -35 39 9 4 22 14 29 22 14
18 17 67 5 75 -5 3 -7 19 -4 35 4 30 20 40 57 38 18 -2 20 -10 23 -89z m-532
13 c35 -25 43 -40 76 -138 20 -61 61 -167 91 -236 l54 -124 -90 -7 c-50 -3
-112 -6 -138 -6 l-47 0 -54 78 c-89 127 -268 430 -256 433 6 2 273 26 299 28
14 0 43 -12 65 -28z m-335 -151 c39 -69 106 -179 150 -245 l78 -120 -62 -7
c-34 -3 -114 -9 -177 -13 l-115 -7 -88 82 c-129 121 -357 383 -345 396 5 4
344 48 438 56 19 2 39 -1 43 -7 4 -5 40 -66 78 -135z m591 41 l-8 -71 123 0
c68 0 123 -1 123 -2 18 -145 30 -250 30 -275 l0 -33 -129 0 -128 0 -38 82
c-43 94 -121 297 -130 337 l-6 27 63 -4 c45 -2 69 1 83 12 26 19 27 13 17 -73z
m1753 22 c-4 -21 -9 -41 -11 -45 -3 -5 -81 -8 -175 -8 l-169 0 0 24 c0 23 5
25 68 31 37 4 112 13 167 20 55 7 106 13 114 14 10 1 12 -8 6 -36z m789 15
c17 -64 13 -68 -72 -68 -43 0 -81 2 -83 4 -3 3 -3 23 -1 45 l4 41 73 0 c67 0
73 -2 79 -22z m-3669 -100 c44 -56 141 -163 215 -239 l135 -139 -63 -6 c-50
-5 -72 -3 -104 12 -57 26 -268 164 -353 232 -95 76 -215 182 -215 191 0 7 237
48 285 49 14 1 45 -31 100 -100z m2455 62 c0 -27 -3 -30 -30 -30 -27 0 -30 3
-30 30 0 27 3 30 30 30 27 0 30 -3 30 -30z m571 3 c-5 -21 -15 -29 -34 -31
-23 -3 -27 1 -27 21 0 30 7 37 41 37 25 0 27 -2 20 -27z m399 -3 c0 -28 -3
-30 -35 -30 -32 0 -35 2 -35 30 0 28 3 30 35 30 32 0 35 -2 35 -30z m-1803 14
c-3 -3 -12 -4 -19 -1 -8 3 -5 6 6 6 11 1 17 -2 13 -5z m2213 -20 c0 -23 -3
-25 -37 -22 -31 2 -39 7 -41 26 -3 20 1 22 37 22 37 0 41 -2 41 -26z m120 1
c0 -18 -5 -25 -18 -25 -25 0 -31 7 -25 31 8 29 43 25 43 -6z m120 -16 c0 -5
-4 -9 -10 -9 -5 0 -10 7 -10 16 0 8 5 12 10 9 6 -3 10 -10 10 -16z m-2344 -63
c1 -1 -34 -291 -35 -292 -3 -2 -247 9 -250 12 -4 4 -30 220 -31 260 l0 32 158
-6 c86 -2 158 -5 158 -6z m360 -98 c-24 -57 -54 -127 -66 -157 l-24 -53 -125
7 c-69 4 -128 9 -130 11 -4 3 10 139 25 252 l6 42 179 0 178 0 -43 -102z m360
75 c-12 -25 -81 -129 -172 -261 l-29 -43 -99 6 c-55 3 -101 7 -103 9 -3 2 9
30 25 62 16 33 46 103 68 157 l38 97 143 0 144 0 -15 -27z m398 -29 c-27 -31
-107 -113 -179 -181 l-130 -125 -90 6 c-49 4 -104 9 -121 12 l-31 6 111 168
111 169 188 0 189 1 -48 -56z m356 14 c-77 -71 -247 -193 -374 -268 -113 -69
-124 -73 -175 -71 -30 1 -56 3 -58 4 -1 2 80 87 180 189 l182 186 145 1 145 0
-45 -41z m-1796 -335 c16 -101 37 -305 32 -310 -3 -3 -16 -3 -30 1 -33 8 -104
97 -183 228 l-62 103 32 6 c18 4 71 7 119 8 l86 1 6 -37z m282 20 c-3 -10 -12
-79 -21 -153 -22 -191 -2 -169 -157 -174 -22 -1 -24 5 -43 172 l-21 172 124 0
c113 0 123 -2 118 -17z m226 7 l60 0 -37 -67 c-43 -78 -134 -210 -161 -234
-25 -21 -84 -33 -84 -16 0 6 9 82 20 167 11 85 20 157 20 159 0 2 28 1 61 -3
34 -3 89 -6 121 -6z m-785 -32 c73 -123 109 -181 149 -235 l45 -63 -43 0 c-24
0 -74 5 -113 10 -68 9 -72 11 -124 67 -78 85 -191 226 -185 232 6 6 117 16
206 19 43 2 48 -1 65 -30z m1072 6 c6 -5 -37 -58 -132 -165 l-86 -96 -72 -12
c-39 -6 -73 -10 -75 -9 -1 2 26 45 61 96 34 51 76 117 91 148 l29 54 90 -6
c50 -4 92 -8 94 -10z m-1368 -41 c30 -42 109 -139 173 -212 l21 -23 -35 6
c-121 24 -291 71 -325 91 -22 13 -78 54 -125 92 l-85 68 130 11 c222 19 207
21 246 -33z m1569 21 l74 -7 -38 -33 c-98 -84 -180 -132 -276 -158 -51 -14
-95 -24 -97 -23 -1 2 27 36 62 77 36 40 80 93 98 117 29 40 35 43 67 39 19 -3
69 -8 110 -12z m-1931 -66 c42 -34 67 -58 56 -54 -11 4 -69 28 -129 54 -92 39
-106 47 -85 53 59 17 80 10 158 -53z m2121 42 l25 -7 -25 -11 c-14 -5 -47 -20
-75 -32 -96 -42 -104 -44 -65 -13 19 15 46 38 60 50 26 24 39 26 80 13z"/>
        <path d="M3928 1333 c7 -3 16 -2 19 1 4 3 -2 6 -13 5 -11 0 -14 -3 -6 -6z"/>
        <path d="M10156 5571 l-629 -6 -933 -1605 c-514 -883 -934 -1610 -934 -1617 0
-6 8 -14 18 -17 9 -2 303 -7 652 -10 349 -4 692 -9 761 -12 l126 -6 423 711
423 711 1414 0 c980 0 1427 3 1457 11 61 15 240 151 366 278 176 176 291 373
346 591 77 300 14 533 -206 764 -41 44 -110 105 -152 136 l-77 57 -938 7
c-516 3 -1062 8 -1213 9 -151 2 -558 1 -904 -2z m3094 -99 c94 -66 218 -195
274 -284 72 -117 99 -201 104 -331 14 -352 -189 -714 -549 -983 -56 -41 -115
-82 -133 -92 -29 -16 -133 -17 -1472 -20 l-1440 -2 -420 -706 -419 -705 -525
7 c-289 4 -620 9 -735 13 l-211 6 907 1560 c499 858 913 1568 919 1579 11 18
59 18 1823 11 l1812 -7 65 -46z"/>
        <path d="M11585 5009 c-253 -4 -527 -10 -609 -11 l-150 -3 -173 -300 c-95
-165 -173 -307 -173 -316 0 -15 26 -18 233 -24 127 -3 464 -7 747 -8 l515 -2
80 28 c150 53 295 163 338 257 15 32 21 66 21 120 1 118 -44 183 -164 238 -69
32 -78 32 -665 21z m674 -74 c75 -41 104 -89 109 -176 3 -55 0 -77 -18 -113
-29 -61 -112 -134 -208 -184 -121 -63 -171 -71 -458 -74 -306 -4 -1146 13
-1142 22 2 4 72 127 157 273 l153 267 82 1 c44 1 248 5 451 9 204 4 471 6 595
6 l225 -1 54 -30z"/>
        <path d="M14057 5483 c-118 -148 -188 -283 -214 -410 -20 -97 -7 -203 42 -350
33 -98 86 -217 102 -226 5 -2 310 6 678 20 602 22 811 25 2065 27 1346 3 1424
2 2215 -25 451 -15 823 -24 827 -20 14 12 90 239 115 341 34 140 35 233 4 328
-28 85 -105 213 -189 313 l-57 69 -2767 0 -2767 0 -54 -67z m5595 -10 c86 -96
182 -258 207 -348 25 -93 7 -214 -66 -440 -25 -77 -47 -141 -48 -143 -2 -2
-416 11 -921 28 -862 30 -943 31 -1304 21 -485 -14 -801 -14 -1295 0 -365 10
-448 9 -1285 -20 -493 -17 -903 -31 -913 -31 -47 0 -147 305 -147 449 0 128
89 321 224 483 l31 38 2741 0 2742 0 34 -37z"/>
        <path d="M20647 5508 c-13 -24 -142 -263 -287 -531 -198 -368 -367 -661 -686
-1190 l-422 -702 -34 1 c-622 25 -753 27 -1263 18 -297 -6 -541 -10 -543 -9
-1 1 -9 250 -16 553 -8 304 -17 556 -21 562 -10 16 -1180 14 -1193 -2 -5 -8
-12 -140 -16 -318 -4 -168 -14 -492 -22 -720 -18 -524 -19 -861 -2 -878 9 -9
475 -12 2034 -12 l2022 0 373 627 374 626 320 -6 c176 -4 649 -7 1051 -7 l732
0 386 -620 387 -620 668 0 c552 0 671 2 680 14 9 10 0 30 -39 89 -107 165
-571 905 -710 1132 -175 287 -287 479 -490 840 -84 149 -272 475 -418 726
l-265 456 -105 7 c-58 3 -637 6 -1288 6 l-1182 0 -25 -42z m1629 -840 c148
-166 297 -336 332 -377 l63 -76 -335 -3 c-185 -1 -486 -1 -670 0 l-335 3 336
378 c184 207 336 377 338 377 1 0 124 -136 271 -302z"/>
        <path d="M17 2904 c14 -27 49 -56 158 -129 234 -156 405 -308 470 -419 33 -56
30 -76 -26 -146 -22 -28 -38 -54 -36 -57 9 -9 2816 -18 2836 -10 18 9 69 103
60 112 -3 2 -70 16 -150 30 -646 115 -729 133 -904 195 -310 112 -579 201
-691 230 -199 52 -606 111 -1099 160 -115 12 -302 32 -415 46 -113 13 -208 24
-212 24 -4 0 0 -16 9 -36z m422 -162 c72 -36 123 -69 141 -90 25 -31 144 -281
136 -289 -3 -4 -449 427 -454 439 -8 19 72 -8 177 -60z m466 -267 c0 -23 -5
-30 -19 -30 -28 0 -43 29 -26 50 21 25 45 14 45 -20z"/>
        <path d="M22822 1753 c-13 -38 -259 -704 -267 -725 -6 -16 -1 -18 47 -18 l54
0 40 113 41 112 150 3 149 2 39 -115 40 -115 53 0 c35 0 52 4 51 13 0 6 -60
179 -132 382 l-133 370 -61 3 c-59 3 -61 2 -71 -25z m177 -420 c1 -10 -28 -13
-114 -13 -63 0 -115 4 -115 8 0 6 66 183 116 312 5 13 112 -277 113 -307z"/>
        <path d="M14415 1743 c9 -39 52 -81 94 -93 94 -26 206 2 235 59 26 50 22 61
-27 61 -34 0 -44 -4 -52 -22 -26 -58 -122 -63 -153 -7 -15 25 -23 29 -61 29
-42 0 -43 -1 -36 -27z"/>
        <path d="M21805 1743 c9 -39 52 -81 94 -93 94 -26 206 2 235 59 26 50 22 61
-27 61 -34 0 -44 -4 -52 -22 -26 -58 -122 -63 -153 -7 -15 25 -23 29 -61 29
-42 0 -43 -1 -36 -27z"/>
        <path d="M7820 1385 l0 -375 50 0 50 0 0 155 0 155 114 0 c198 0 274 27 316
115 25 52 30 139 11 197 -15 46 -78 103 -128 117 -21 6 -122 11 -225 11 l-188
0 0 -375z m396 272 c38 -20 57 -62 56 -124 -2 -57 -25 -93 -73 -110 -19 -7
-89 -12 -156 -12 l-123 -1 0 136 0 137 133 -5 c93 -4 142 -10 163 -21z"/>
        <path d="M15140 1720 l0 -40 130 0 130 0 0 -335 0 -335 50 0 50 0 2 333 3 332
128 3 127 3 0 39 0 40 -310 0 -310 0 0 -40z"/>
        <path d="M8689 1570 c-58 -10 -128 -57 -159 -107 -77 -122 -58 -318 40 -407
91 -82 240 -81 332 2 43 39 68 80 68 112 0 17 -6 20 -40 20 -33 0 -42 -4 -54
-29 -9 -16 -29 -40 -46 -55 -26 -21 -42 -26 -86 -26 -30 0 -68 7 -84 15 -34
18 -66 67 -75 118 l-7 37 202 0 203 0 -5 78 c-5 89 -29 143 -82 189 -51 45
-134 66 -207 53z m128 -100 c34 -21 56 -56 68 -107 l7 -33 -156 0 -156 0 6 28
c26 110 142 167 231 112z"/>
        <path d="M10285 1568 c-68 -12 -122 -52 -158 -117 -26 -46 -32 -68 -35 -140
-5 -102 7 -152 51 -217 45 -67 106 -97 195 -97 145 0 227 74 252 228 19 118
-17 237 -90 298 -50 43 -131 59 -215 45z m151 -109 c63 -58 85 -197 45 -284
-29 -65 -72 -95 -135 -95 -106 0 -161 70 -161 205 0 94 22 146 76 183 47 32
136 28 175 -9z"/>
        <path d="M11447 1570 c-26 -5 -62 -17 -80 -27 -34 -20 -77 -92 -77 -130 0 -20
5 -23 40 -23 38 0 41 3 57 41 19 47 57 69 123 69 75 0 120 -37 120 -99 0 -43
-27 -57 -139 -70 -51 -7 -108 -18 -126 -25 -47 -20 -83 -64 -93 -113 -27 -126
72 -219 207 -193 57 11 81 21 129 57 30 22 32 23 32 5 0 -38 72 -72 120 -57
28 9 29 65 0 65 -34 0 -40 32 -40 217 0 161 -2 181 -20 211 -35 58 -147 89
-253 72z m167 -417 c-21 -40 -102 -83 -157 -83 -55 0 -99 45 -95 97 4 53 45
78 151 93 46 6 90 16 98 20 23 15 25 -86 3 -127z"/>
        <path d="M16060 1570 c-46 -8 -74 -24 -99 -56 l-21 -27 0 37 0 36 -50 0 -50 0
2 -382 3 -383 48 -3 47 -3 0 143 c0 132 1 141 16 120 25 -37 73 -55 139 -55
151 1 229 107 228 308 0 121 -42 204 -123 245 -43 21 -94 29 -140 20z m97
-100 c46 -27 66 -73 71 -160 5 -90 -9 -150 -47 -192 -24 -27 -36 -32 -87 -36
-50 -3 -63 -1 -88 19 -45 36 -66 92 -66 184 0 91 21 148 65 183 36 29 108 30
152 2z"/>
        <path d="M16587 1570 c-26 -5 -62 -17 -80 -27 -34 -20 -77 -92 -77 -130 0 -20
5 -23 40 -23 38 0 41 3 57 41 19 47 57 69 123 69 75 0 120 -37 120 -99 0 -43
-27 -57 -139 -70 -51 -7 -108 -18 -126 -25 -47 -20 -83 -64 -93 -113 -27 -126
72 -219 207 -193 57 11 81 21 129 57 30 22 32 23 32 5 0 -38 72 -72 120 -57
28 9 29 65 0 65 -34 0 -40 32 -40 217 0 161 -2 181 -20 211 -35 58 -147 89
-253 72z m167 -417 c-21 -40 -102 -83 -157 -83 -55 0 -99 45 -95 97 4 53 45
78 151 93 46 6 90 16 98 20 23 15 25 -86 3 -127z"/>
        <path d="M17761 1569 c-112 -21 -191 -140 -191 -288 0 -156 64 -254 184 -281
126 -28 239 44 271 173 7 26 6 27 -36 27 -43 0 -45 -1 -66 -47 -35 -76 -100
-101 -178 -69 -95 40 -114 272 -31 364 28 30 40 36 88 40 69 5 103 -14 129
-75 17 -41 21 -43 59 -43 44 0 47 6 29 61 -36 106 -136 160 -258 138z"/>
        <path d="M18875 1568 c-68 -12 -122 -52 -158 -117 -26 -46 -32 -68 -35 -140
-5 -102 7 -152 51 -217 45 -67 106 -97 195 -97 145 0 227 74 252 228 19 118
-17 237 -90 298 -50 43 -131 59 -215 45z m151 -109 c63 -58 85 -197 45 -284
-29 -65 -72 -95 -135 -95 -106 0 -161 70 -161 205 0 94 22 146 76 183 47 32
136 28 175 -9z"/>
        <path d="M19500 1570 c-46 -8 -74 -24 -99 -56 l-21 -27 0 37 0 36 -50 0 -50 0
2 -382 3 -383 48 -3 47 -3 0 143 c0 132 1 141 16 120 25 -37 73 -55 139 -55
151 1 229 107 228 308 0 121 -42 204 -123 245 -43 21 -94 29 -140 20z m97
-100 c46 -27 66 -73 71 -160 5 -90 -9 -150 -47 -192 -24 -27 -36 -32 -87 -36
-50 -3 -63 -1 -88 19 -45 36 -66 92 -66 184 0 91 21 148 65 183 36 29 108 30
152 2z"/>
        <path d="M23909 1570 c-58 -10 -128 -57 -159 -107 -77 -122 -58 -318 40 -407
91 -82 240 -81 332 2 43 39 68 80 68 112 0 17 -6 20 -40 20 -33 0 -42 -4 -54
-29 -9 -16 -29 -40 -46 -55 -26 -21 -42 -26 -86 -26 -30 0 -68 7 -84 15 -34
18 -66 67 -75 118 l-7 37 202 0 203 0 -5 78 c-5 89 -29 143 -82 189 -51 45
-134 66 -207 53z m128 -100 c34 -21 56 -56 68 -107 l7 -33 -156 0 -156 0 6 28
c26 110 142 167 231 112z"/>
        <path d="M9090 1285 l0 -275 45 0 45 0 2 233 3 232 123 3 122 3 0 39 0 40
-170 0 -170 0 0 -275z"/>
        <path d="M9510 1285 l0 -275 54 0 54 0 133 210 134 209 3 -209 2 -210 45 0 45
0 0 275 0 275 -52 0 -53 0 -135 -212 -135 -211 -3 211 -2 212 -45 0 -45 0 0
-275z"/>
        <path d="M10710 1285 l0 -275 45 0 44 0 3 123 3 122 128 3 127 3 0 -126 0
-125 45 0 45 0 0 275 0 275 -45 0 -45 0 0 -110 0 -110 -130 0 -130 0 0 110 0
110 -45 0 -45 0 0 -275z"/>
        <path d="M11943 1366 c-13 -234 -24 -269 -86 -274 l-38 -3 3 -42 3 -42 54 1
c49 0 57 3 83 35 42 49 58 115 70 287 l11 152 104 0 103 0 0 -235 0 -235 45 0
45 0 0 275 0 275 -193 0 -193 0 -11 -194z"/>
        <path d="M12480 1285 l0 -275 141 0 c78 0 159 5 180 11 132 40 156 233 37 304
-26 16 -57 21 -148 25 l-115 5 -3 103 -3 102 -44 0 -45 0 0 -275z m260 -16
c31 -7 56 -19 65 -32 21 -30 18 -87 -5 -117 -18 -23 -26 -25 -124 -28 l-106
-4 0 89 c0 50 3 93 7 96 10 11 106 8 163 -4z"/>
        <path d="M13000 1285 l0 -275 45 0 44 0 3 123 3 122 128 3 127 3 0 -126 0
-125 45 0 45 0 0 275 0 275 -45 0 -45 0 0 -110 0 -110 -130 0 -130 0 0 110 0
110 -45 0 -45 0 0 -275z"/>
        <path d="M13590 1284 l0 -276 168 4 c156 3 170 5 206 27 102 64 98 232 -7 288
-23 13 -65 19 -152 23 l-120 5 -3 103 -3 102 -44 0 -45 0 0 -276z m318 -31
c21 -16 28 -30 30 -66 3 -39 -1 -51 -22 -72 -24 -24 -31 -25 -131 -25 l-105 0
0 88 c0 49 3 92 8 96 4 5 49 6 100 3 73 -3 100 -9 120 -24z"/>
        <path d="M14110 1285 l0 -275 50 0 50 0 0 275 0 275 -50 0 -50 0 0 -275z"/>
        <path d="M14350 1285 l0 -275 54 0 54 0 133 210 134 209 3 -209 2 -210 45 0
45 0 0 275 0 275 -52 0 -53 0 -135 -212 -135 -211 -3 211 -2 212 -45 0 -45 0
0 -275z"/>
        <path d="M17010 1285 l0 -275 45 0 44 0 3 123 3 122 128 3 127 3 0 -126 0
-125 45 0 45 0 0 275 0 275 -45 0 -45 0 0 -110 0 -110 -130 0 -130 0 0 110 0
110 -45 0 -45 0 0 -275z"/>
        <path d="M18120 1285 l0 -275 45 0 45 0 2 233 3 232 128 3 127 3 0 -236 0
-235 45 0 45 0 0 275 0 275 -220 0 -220 0 0 -275z"/>
        <path d="M19830 1520 l0 -39 93 -3 92 -3 3 -232 2 -233 45 0 45 0 0 235 0 235
95 0 95 0 0 40 0 40 -235 0 -235 0 0 -40z"/>
        <path d="M20400 1285 l0 -275 45 0 44 0 3 123 3 122 128 3 127 3 0 -126 0
-125 45 0 45 0 0 275 0 275 -45 0 -45 0 0 -110 0 -110 -130 0 -130 0 0 110 0
110 -45 0 -45 0 0 -275z"/>
        <path d="M20980 1284 l0 -276 168 4 c156 3 170 5 206 27 102 64 98 232 -7 288
-23 13 -65 19 -152 23 l-120 5 -3 103 -3 102 -44 0 -45 0 0 -276z m318 -31
c21 -16 28 -30 30 -66 3 -39 -1 -51 -22 -72 -24 -24 -31 -25 -131 -25 l-105 0
0 88 c0 49 3 92 8 96 4 5 49 6 100 3 73 -3 100 -9 120 -24z"/>
        <path d="M21500 1285 l0 -275 50 0 50 0 0 275 0 275 -50 0 -50 0 0 -275z"/>
        <path d="M21740 1285 l0 -275 54 0 54 0 133 210 134 209 3 -209 2 -210 45 0
45 0 0 275 0 275 -52 0 -53 0 -135 -212 -135 -211 -3 211 -2 212 -45 0 -45 0
0 -275z"/>
        <path d="M23310 1285 l0 -275 45 0 45 0 2 233 3 232 123 3 122 3 0 39 0 40
-170 0 -170 0 0 -275z"/>
        <path d="M24320 1285 l0 -275 45 0 44 0 3 123 3 122 128 3 127 3 0 -126 0
-125 45 0 45 0 0 275 0 275 -45 0 -45 0 0 -110 0 -110 -130 0 -130 0 0 110 0
110 -45 0 -45 0 0 -275z"/>
        <path d="M24860 1520 l0 -39 93 -3 92 -3 3 -232 2 -233 45 0 45 0 0 235 0 235
95 0 95 0 0 40 0 40 -235 0 -235 0 0 -40z"/>
    </g>
</svg>
